{"glyphs":{"0":{"ha":676,"x_min":46,"x_max":633,"o":"m 625 186 q 543 76 633 150 q 331 -28 433 -12 l 289 -21 q 168 82 226 31 q 50 229 63 175 q 46 429 46 325 q 57 808 46 607 q 394 997 219 932 l 429 997 l 553 843 q 614 618 606 789 q 625 186 618 532 m 226 332 l 276 469 l 281 439 l 358 644 l 368 611 l 425 754 q 382 897 408 828 q 276 847 343 881 q 228 783 239 822 l 226 332 m 324 393 l 332 458 l 239 254 l 246 304 l 225 265 l 225 154 q 271 97 233 131 q 331 54 304 67 q 456 126 435 88 l 450 529 q 442 647 450 576 l 324 393 z "},"1":{"ha":400,"x_min":17,"x_max":313,"o":"m 313 364 l 272 439 l 268 449 l 274 117 l 239 181 l 215 -125 l 138 400 l 176 369 l 135 685 l 189 657 l 178 772 l 17 789 q 310 982 261 896 l 313 364 z "},"2":{"ha":615,"x_min":38,"x_max":574,"o":"m 572 526 q 469 378 561 471 q 363 275 429 336 l 326 268 q 226 322 299 272 l 197 136 l 442 133 q 513 158 478 133 q 565 217 547 183 l 519 -6 q 381 1 481 0 q 203 1 264 3 l 38 -1 l 89 314 l 94 313 l 96 324 l 228 426 q 326 350 267 372 q 382 395 351 363 q 419 451 413 428 l 417 776 q 374 842 407 817 q 304 871 350 856 l 244 892 q 203 739 203 761 q 204 726 203 732 q 201 707 201 717 q 233 622 201 669 l 64 771 q 96 838 76 815 l 204 993 l 235 993 q 567 803 460 896 q 568 640 568 764 q 571 583 568 624 q 572 526 574 549 z "},"3":{"ha":582,"x_min":61,"x_max":522,"o":"m 244 538 l 354 543 l 382 579 l 365 903 l 211 843 l 213 788 q 208 765 208 778 q 265 665 208 713 q 164 686 200 676 q 61 731 94 704 l 61 829 l 215 906 l 390 975 l 517 826 l 522 567 l 440 496 l 514 415 l 515 65 l 365 -15 l 360 -15 l 165 -6 l 64 126 q 225 240 88 218 q 178 168 178 181 q 190 136 178 153 l 231 63 l 354 71 l 382 107 l 367 467 l 225 464 l 244 538 z "},"4":{"ha":738,"x_min":43,"x_max":642,"o":"m 335 0 q 374 61 367 18 q 389 253 386 140 q 43 246 235 253 l 165 471 l 85 438 l 214 722 l 153 686 l 339 1032 l 301 825 l 363 890 l 289 632 l 336 690 l 385 742 l 296 369 l 388 371 q 379 553 386 456 l 504 553 q 507 375 508 476 q 642 446 574 385 l 636 244 q 504 251 579 249 q 490 75 500 146 q 526 0 483 24 l 335 0 z "},"5":{"ha":676,"x_min":60,"x_max":642,"o":"m 61 543 l 65 967 q 581 985 429 967 l 632 764 q 571 823 611 799 q 492 847 531 847 l 217 844 l 218 660 q 360 714 290 704 l 401 707 q 522 604 464 656 q 640 457 628 511 q 638 400 642 435 q 635 344 635 361 q 633 183 635 221 q 254 -6 511 90 l 219 -6 l 96 149 q 60 214 74 171 l 253 363 q 217 278 217 314 q 219 258 217 268 q 218 246 218 253 q 267 94 218 224 q 414 144 318 108 q 463 208 451 169 l 465 532 q 422 588 457 556 q 360 632 386 619 q 219 556 253 597 l 219 538 l 231 497 l 68 533 l 67 543 l 61 543 z "},"6":{"ha":626,"x_min":25,"x_max":561,"o":"m 165 490 q 174 340 167 447 q 204 200 181 232 q 289 121 268 114 q 350 192 297 136 l 432 278 l 422 276 q 431 296 431 282 q 289 449 431 399 q 165 490 251 463 m 28 750 q 35 763 29 758 l 54 786 l 169 874 q 347 985 315 985 q 357 981 353 985 l 514 788 q 546 692 546 715 q 515 643 546 663 l 390 611 l 389 621 q 422 646 404 636 q 431 668 428 649 q 344 769 421 701 q 236 833 264 840 q 217 819 226 831 l 222 821 q 204 804 214 813 l 201 799 q 182 751 182 769 q 178 740 182 747 q 169 624 174 700 q 417 540 294 601 q 557 404 558 469 q 558 322 557 367 l 561 258 q 550 233 561 243 l 536 231 l 538 221 q 400 106 503 190 q 222 -6 265 -6 q 214 -1 215 -6 l 57 192 q 26 599 38 233 q 28 750 25 651 z "},"7":{"ha":738,"x_min":74,"x_max":672,"o":"m 471 561 l 551 594 l 381 236 l 442 272 l 207 -201 l 275 86 l 214 21 l 347 400 l 300 342 l 251 290 l 419 822 l 228 818 q 74 746 153 817 l 79 947 q 336 939 178 939 q 672 946 479 939 l 471 561 z "},"8":{"ha":582,"x_min":64,"x_max":546,"o":"m 239 857 l 244 538 l 354 488 l 382 524 l 365 903 l 239 857 m 231 63 l 354 71 l 382 107 l 367 411 l 225 464 l 192 132 l 231 63 m 546 324 l 515 65 l 365 -15 l 360 -15 l 165 -6 l 71 114 q 69 197 74 119 q 64 339 64 299 q 75 425 64 414 l 168 524 q 138 563 172 532 q 89 601 104 594 l 89 843 l 243 919 l 390 975 l 546 768 l 515 482 l 440 440 l 546 324 z "},"9":{"ha":626,"x_min":11,"x_max":563,"o":"m 422 568 q 414 676 418 649 q 383 774 404 744 q 299 851 321 858 q 238 781 292 838 l 156 694 l 165 697 q 157 678 157 692 q 310 549 157 549 q 422 568 364 549 m 560 226 q 553 215 558 219 l 533 192 l 418 104 q 242 -6 274 -6 q 231 -1 235 -6 l 43 165 q 11 260 11 238 q 42 307 11 289 l 167 340 l 168 331 q 135 306 153 315 q 126 283 129 303 q 214 183 136 253 q 315 139 264 139 q 372 158 353 139 l 365 157 q 383 174 374 165 l 386 178 q 406 226 406 207 q 410 236 406 231 q 418 436 413 315 q 310 418 369 418 q 140 456 232 418 q 31 569 29 501 q 29 654 31 610 l 26 715 q 38 740 26 729 l 51 743 l 50 753 q 188 867 122 814 q 365 976 322 976 q 374 974 372 976 l 531 781 q 561 378 550 740 q 560 226 563 325 z "}," ":{"ha":475,"x_min":0,"x_max":0,"o":""},"!":{"ha":244,"x_min":1,"x_max":221,"o":"m 1 981 l 221 981 q 185 906 178 957 q 200 568 192 853 q 181 404 201 513 q 157 261 158 285 l 88 261 q 74 418 92 311 q 56 563 56 532 q 40 919 56 821 q 1 981 33 963 m 106 18 q 149 31 124 31 q 167 28 154 31 q 185 25 179 25 q 200 151 200 25 q 106 196 160 190 q 51 96 72 160 q 56 53 54 74 q 106 18 65 21 z "},"\"":{"ha":506,"x_min":1,"x_max":485,"o":"m 1 981 l 221 981 q 185 906 178 957 q 188 890 186 890 q 188 903 188 900 q 186 911 186 915 q 186 874 185 907 q 167 772 188 819 q 143 692 144 721 l 74 692 q 60 788 78 740 q 42 868 42 835 q 43 910 42 907 q 44 897 47 901 q 40 919 43 900 q 1 981 33 963 m 265 981 l 485 981 q 449 906 442 957 q 451 890 450 890 q 451 903 451 900 q 450 911 450 915 q 450 874 449 907 q 431 772 451 819 q 407 692 408 721 l 338 692 q 324 788 342 740 q 306 868 306 835 q 307 910 306 907 q 308 897 311 901 q 304 919 307 900 q 265 981 297 963 z "},"$":{"ha":626,"x_min":6,"x_max":621,"o":"m 256 667 l 250 738 l 289 703 l 282 825 q 261 828 269 829 q 222 794 243 824 q 201 746 201 764 q 256 667 201 728 m 351 40 l 351 32 l 349 39 q 322 22 335 29 l 308 -267 l 285 4 q 246 -7 261 -7 q 236 -3 239 -7 l 63 190 q 26 285 26 261 q 60 332 26 313 l 108 361 l 214 383 q 175 351 194 367 q 151 310 154 331 q 226 197 161 278 q 272 147 253 165 l 251 383 l 281 346 l 275 413 q 207 485 244 446 q 6 717 6 696 q 14 732 6 726 l 35 754 l 188 868 q 276 929 238 904 l 265 1106 l 378 1104 l 378 978 q 383 978 381 978 q 394 974 390 978 l 568 782 q 604 686 604 710 q 569 639 604 658 l 432 607 l 431 617 q 467 642 446 631 q 476 664 474 644 q 379 764 465 696 l 379 535 q 486 429 428 486 q 621 256 621 296 q 608 231 621 242 l 593 228 l 594 218 q 443 104 556 188 q 351 40 392 65 m 349 331 l 350 161 q 410 226 374 189 l 399 224 q 408 243 408 229 q 349 331 408 260 z "},"%":{"ha":1035,"x_min":19,"x_max":1021,"o":"m 517 336 l 538 433 l 339 131 l 354 204 l 151 -61 l 418 450 l 426 404 l 590 708 l 611 658 l 786 968 l 892 896 l 517 336 m 1014 122 q 938 44 1021 88 q 824 3 868 8 l 799 7 q 650 146 658 115 q 663 385 649 163 q 861 490 758 454 l 960 422 l 971 404 q 1007 279 1001 375 q 1014 122 1008 265 m 881 89 q 854 435 881 368 l 810 408 q 779 371 786 390 l 786 89 q 824 49 796 61 q 881 89 865 61 m 385 617 q 308 539 392 582 q 194 497 239 503 l 169 501 q 21 640 29 610 q 33 879 19 657 q 232 985 129 949 l 331 917 l 342 899 q 378 774 372 869 q 385 617 379 760 m 251 583 q 225 929 251 863 l 181 903 q 150 865 157 885 l 157 583 q 194 543 167 556 q 251 583 236 556 z "},"'":{"ha":244,"x_min":1,"x_max":221,"o":"m 1 981 l 221 981 q 185 906 178 957 q 188 890 186 890 q 188 903 188 900 q 186 911 186 915 q 186 874 185 907 q 167 772 188 819 q 143 692 144 721 l 74 692 q 60 788 78 740 q 42 868 42 835 q 43 910 42 907 q 44 897 47 901 q 40 919 43 900 q 1 981 33 963 z "},"(":{"ha":417,"x_min":46,"x_max":429,"o":"m 276 958 q 228 894 239 933 l 225 -40 q 271 -97 233 -64 q 331 -140 304 -128 q 331 -222 342 -156 l 289 -215 q 168 -112 226 -164 q 50 35 63 -19 q 46 179 46 131 q 57 919 46 718 q 394 1108 219 1043 l 429 1108 l 382 1011 q 276 958 382 1011 z "},")":{"ha":417,"x_min":46,"x_max":429,"o":"m 199 958 q 247 894 236 933 l 250 -40 q 206 -96 242 -64 q 144 -140 171 -128 q 144 -222 133 -156 l 186 -215 q 307 -112 249 -164 q 425 35 413 -19 q 429 179 429 131 q 418 919 429 718 q 81 1108 256 1043 l 46 1108 l 93 1011 q 199 958 93 1011 z "},"*":{"ha":522,"x_min":35,"x_max":503,"o":"m 238 583 l 150 531 l 169 556 l 44 492 l 213 621 l 150 650 l 171 660 l 35 726 l 63 775 l 242 671 l 235 732 l 254 718 l 243 872 l 297 872 l 299 668 l 353 710 l 351 686 l 475 774 l 503 724 l 313 610 l 401 558 l 369 563 l 488 482 l 283 574 l 285 461 l 272 490 l 264 346 l 238 583 z "},"+":{"ha":578,"x_min":32,"x_max":546,"o":"m 339 365 l 317 411 l 314 418 l 317 208 l 297 249 l 285 57 l 240 386 l 263 368 l 253 446 l 110 450 q 96 451 103 451 q 32 419 60 451 l 38 551 q 88 524 56 524 q 107 526 97 524 l 244 526 l 239 567 l 269 549 l 251 754 l 338 753 l 339 526 l 503 526 q 546 574 524 526 l 540 406 q 475 439 521 438 l 339 443 l 339 365 z "},",":{"ha":318,"x_min":53,"x_max":265,"o":"m 218 3 l 201 53 l 150 -62 l 140 -19 l 53 -142 l 61 10 l 79 -26 l 96 85 l 128 50 l 163 167 l 265 165 l 218 3 z "},"-":{"ha":671,"x_min":42,"x_max":629,"o":"m 301 399 l 340 421 l 346 424 l 169 419 l 203 439 l 42 451 l 319 494 l 304 472 l 472 494 l 457 465 l 629 483 l 629 400 l 301 399 z "},".":{"ha":318,"x_min":57,"x_max":261,"o":"m 115 154 q 101 122 107 128 q 57 113 90 111 l 63 51 q 118 -3 103 51 l 199 -6 q 213 42 194 24 q 261 60 232 60 l 253 126 q 193 165 211 122 l 115 154 z "},"/":{"ha":626,"x_min":-57,"x_max":683,"o":"m 308 336 l 329 433 l 131 131 l 146 204 l -57 -61 l 210 450 l 218 404 l 382 708 l 403 658 l 578 968 l 683 896 l 308 336 z "},":":{"ha":343,"x_min":69,"x_max":274,"o":"m 128 154 q 114 122 119 128 q 69 113 103 111 l 75 51 q 131 -3 115 51 l 211 -6 q 226 42 207 24 q 274 60 244 60 l 265 126 q 206 165 224 122 l 128 154 m 128 599 q 114 567 119 572 q 69 557 103 556 l 75 496 q 131 442 115 496 l 211 439 q 226 486 207 468 q 274 504 244 504 l 265 571 q 206 610 224 567 l 128 599 z "},";":{"ha":335,"x_min":40,"x_max":296,"o":"m 206 3 l 189 53 l 138 -62 l 128 -19 l 40 -142 l 49 10 l 67 -26 l 83 85 l 115 50 l 150 167 l 253 165 l 206 3 m 150 599 q 136 567 142 572 q 92 557 124 556 l 97 496 q 153 442 138 496 l 233 439 q 247 486 229 468 q 296 504 265 504 l 288 571 q 228 610 244 567 l 150 599 z "},"=":{"ha":671,"x_min":42,"x_max":629,"o":"m 369 411 l 331 389 l 325 388 l 501 390 l 468 371 l 629 358 l 351 317 l 367 338 l 199 315 l 214 344 l 42 326 l 42 410 l 369 411 m 301 482 l 340 504 l 346 507 l 169 503 l 203 522 l 42 535 l 319 578 l 304 556 l 472 578 l 457 549 l 629 567 l 629 483 l 301 482 z "},"?":{"ha":615,"x_min":64,"x_max":572,"o":"m 135 235 l 131 425 l 136 424 l 138 435 l 228 538 q 326 461 267 483 q 382 506 351 474 q 419 563 413 539 l 417 776 q 374 842 407 817 q 304 871 350 856 l 244 892 q 203 739 203 761 q 204 726 203 732 q 201 707 201 717 q 233 622 201 669 l 64 771 q 96 838 76 815 l 204 993 l 235 993 q 567 803 460 896 q 568 640 568 764 q 571 650 568 625 q 572 638 572 644 q 469 489 561 582 q 363 386 429 447 l 326 379 q 299 397 306 382 q 268 433 288 419 l 294 240 q 135 235 199 235 m 192 154 q 178 122 183 128 q 133 113 167 111 l 139 51 q 194 -3 179 51 l 275 -6 q 290 42 271 24 q 338 60 308 60 l 329 126 q 269 165 288 122 l 192 154 z "},"A":{"ha":701,"x_min":-44,"x_max":742,"o":"m 454 317 l 440 364 l 344 683 l 271 435 q 454 317 382 332 m 74 315 l 11 383 q 161 483 75 471 l 260 793 q 271 846 271 828 q 247 911 271 899 l 454 911 q 428 850 428 899 q 436 807 428 833 l 589 333 q 665 374 613 344 q 604 285 635 317 l 660 114 q 675 69 674 71 q 701 32 683 49 l 742 8 l 463 8 l 497 32 q 526 74 526 39 q 517 114 526 82 l 481 232 q 254 383 394 250 l 249 364 l 142 32 q 133 -10 133 6 q 174 -50 133 -33 l 117 -53 l 25 -53 l -44 -50 q -3 -25 -11 -39 q 14 21 1 -18 l 144 428 q 40 376 85 424 l 74 315 z "},"B":{"ha":582,"x_min":21,"x_max":546,"o":"m 239 857 l 244 538 l 354 488 l 382 524 l 365 903 l 239 857 m 246 40 l 354 71 l 382 107 l 367 411 l 242 475 l 246 40 m 546 324 l 515 65 l 365 -15 l 361 -15 l 21 -21 q 97 63 97 3 l 90 756 q 39 825 85 804 l 240 910 l 243 919 l 390 975 l 546 768 l 515 482 l 440 440 l 546 324 z "},"C":{"ha":676,"x_min":46,"x_max":633,"o":"m 625 214 q 543 104 633 178 q 331 0 433 15 l 289 7 q 168 110 226 58 q 50 257 63 203 q 46 401 46 353 q 57 781 46 579 q 394 969 219 904 l 429 969 l 553 815 q 589 750 575 793 l 396 601 q 432 686 432 650 q 429 706 432 696 q 431 718 431 711 q 382 869 431 740 q 276 819 343 853 q 228 756 239 794 l 225 182 q 271 125 233 158 q 331 82 304 94 q 456 154 435 115 l 454 286 l 622 250 l 625 214 z "},"D":{"ha":676,"x_min":19,"x_max":626,"o":"m 331 1 q 335 0 333 0 l 19 3 q 96 86 96 26 l 89 904 q 38 974 83 953 l 269 974 q 264 969 267 972 l 278 969 q 615 781 453 904 q 626 401 626 579 q 622 257 626 353 q 504 110 610 203 q 383 7 446 58 l 342 0 l 331 1 m 244 133 q 247 124 246 129 q 342 82 279 101 q 401 125 369 97 q 447 182 439 158 l 444 756 q 368 838 431 803 q 264 889 333 854 q 251 819 256 867 q 239 750 247 772 l 244 133 z "},"E":{"ha":613,"x_min":1,"x_max":593,"o":"m 96 144 l 86 838 q 1 776 43 822 l 42 982 q 93 971 82 978 q 168 968 99 968 q 542 989 367 968 l 593 768 q 533 828 572 804 q 453 851 494 853 l 239 847 q 238 835 238 840 l 240 553 l 415 554 q 481 633 451 560 l 476 371 q 393 447 453 447 l 242 446 l 244 138 l 453 133 q 533 156 494 132 q 593 217 572 181 l 542 -4 q 168 17 367 17 q 93 14 99 17 q 42 3 82 7 l 1 208 q 96 144 49 157 z "},"F":{"ha":532,"x_min":32,"x_max":649,"o":"m 443 624 q 508 689 485 631 l 504 440 q 421 517 481 517 l 260 515 l 260 271 l 207 351 l 201 363 l 210 0 l 165 69 l 135 -264 l 35 310 l 85 276 l 32 621 l 101 590 l 43 1008 l 44 1008 l 42 1024 q 251 1010 185 1010 q 597 1031 422 1010 l 649 810 q 588 869 628 844 q 508 893 549 894 l 256 888 l 260 622 l 443 624 z "},"G":{"ha":676,"x_min":46,"x_max":633,"o":"m 275 419 q 422 475 325 426 q 571 518 511 518 q 625 515 596 518 l 625 403 l 622 407 l 625 214 q 543 104 633 178 q 331 0 433 15 l 289 7 q 168 110 226 58 q 50 257 63 203 q 46 457 46 353 q 57 808 46 607 q 394 997 219 932 l 429 997 l 553 843 q 589 778 575 821 l 396 629 q 432 714 432 678 q 429 733 432 724 q 431 746 431 739 q 382 897 431 768 q 276 847 343 881 q 228 783 239 822 l 225 182 q 271 125 233 158 q 331 82 304 94 q 456 154 435 115 l 454 394 q 397 383 428 383 q 275 419 343 383 z "},"H":{"ha":701,"x_min":11,"x_max":781,"o":"m 121 522 l 71 503 q 54 476 51 493 q 143 394 56 421 l 139 828 q 88 897 133 876 l 347 897 q 315 839 315 872 l 319 392 q 460 460 378 411 l 461 850 q 456 896 461 885 q 399 938 444 917 l 667 942 q 611 865 615 897 l 617 553 q 707 585 678 585 q 781 568 736 585 q 733 472 732 531 q 674 511 706 511 q 618 492 651 511 l 626 -10 q 689 -71 626 -46 l 396 -67 q 458 0 447 -44 l 460 392 q 319 333 381 349 l 322 57 q 388 -8 329 15 l 69 -4 q 146 79 146 19 l 143 347 q 14 497 11 379 q 97 524 63 524 q 121 522 108 524 z "},"I":{"ha":282,"x_min":0,"x_max":290,"o":"m 225 85 q 290 19 232 43 l 0 24 q 76 107 76 47 l 69 856 q 18 925 64 904 l 250 925 q 218 867 218 900 l 225 85 z "},"J":{"ha":676,"x_min":39,"x_max":578,"o":"m 329 928 q 439 919 367 919 q 521 921 426 919 q 554 921 521 921 q 578 919 565 921 q 536 843 536 918 l 538 442 l 529 54 q 357 -29 479 21 q 188 -117 242 -78 q 132 -147 146 -147 q 122 -143 126 -147 l 57 -1 q 39 54 39 38 q 60 83 39 71 l 188 158 l 188 153 q 154 101 158 125 q 178 1 163 67 q 190 -29 185 -31 q 229 -24 226 -25 q 300 13 271 -14 q 360 58 315 26 q 381 85 381 74 l 381 822 q 356 897 381 868 q 329 928 347 907 z "},"K":{"ha":683,"x_min":0,"x_max":760,"o":"m 290 19 l 0 24 q 76 107 76 47 l 69 856 q 18 925 69 901 l 250 925 q 218 867 218 900 l 219 646 q 222 651 221 651 q 226 647 225 650 q 288 721 243 678 q 350 793 333 769 l 432 915 q 689 925 438 915 q 600 883 613 893 q 496 764 578 865 l 297 519 q 469 289 346 432 q 644 61 597 140 q 760 -29 688 -12 q 572 -24 701 -26 q 525 -25 567 -24 q 454 -26 483 -26 q 500 14 497 -1 q 485 60 507 32 l 225 383 q 224 357 225 333 l 225 85 q 290 19 225 46 z "},"L":{"ha":732,"x_min":39,"x_max":706,"o":"m 706 56 q 689 4 706 49 l 626 -164 q 617 -167 622 -168 q 518 -129 576 -147 q 249 -72 389 -89 q 133 -53 147 -60 q 93 25 107 -39 l 79 442 l 81 843 q 39 919 81 918 q 165 918 50 921 q 288 928 240 917 q 250 881 257 893 q 236 822 236 856 q 242 64 236 640 q 268 42 242 51 q 361 15 278 38 q 513 -12 463 -12 q 540 -3 522 -12 q 556 6 558 6 q 568 33 561 4 l 589 129 q 554 188 585 153 l 554 193 l 683 90 q 706 56 706 72 z "},"M":{"ha":978,"x_min":35,"x_max":944,"o":"m 274 257 l 221 338 l 215 349 l 224 -14 l 179 56 l 149 -278 l 49 296 l 99 263 l 46 607 l 115 576 l 76 907 l 60 935 q 35 954 49 950 l 63 954 l 283 971 l 314 968 q 293 911 293 963 q 303 881 293 906 l 486 415 l 686 872 q 703 918 703 910 q 701 950 703 946 q 668 971 696 968 l 944 971 q 908 918 936 968 l 868 590 l 938 621 l 885 276 l 935 310 l 835 -264 l 804 69 l 760 0 l 768 363 l 763 351 l 710 271 l 713 669 l 483 196 l 272 594 l 274 257 z "},"N":{"ha":799,"x_min":72,"x_max":781,"o":"m 314 229 l 261 310 l 256 321 l 264 -42 l 219 28 l 189 -306 l 89 268 l 139 235 l 86 579 l 156 549 l 117 875 q 72 928 97 901 l 111 926 l 322 925 q 300 872 300 919 q 308 854 300 868 q 318 838 317 840 l 593 153 l 593 800 q 551 867 593 856 l 550 871 l 781 871 l 781 869 q 736 800 736 857 l 736 29 q 778 -42 736 -31 l 500 -42 q 529 -22 513 -39 q 546 7 546 -6 q 525 57 546 0 l 311 635 l 314 229 z "},"O":{"ha":676,"x_min":46,"x_max":633,"o":"m 625 214 q 543 104 633 178 q 331 0 433 15 l 289 7 q 168 110 226 58 q 50 257 63 203 q 46 457 46 353 q 57 836 46 635 q 394 1025 219 960 l 429 1025 l 553 871 q 614 646 606 817 q 625 214 618 560 m 456 154 l 450 557 q 382 925 447 751 q 276 875 343 908 q 228 811 239 850 l 225 182 q 271 125 233 158 q 331 82 304 94 q 456 154 435 115 z "},"P":{"ha":567,"x_min":32,"x_max":546,"o":"m 546 851 l 515 538 l 365 457 l 258 568 l 260 271 l 207 351 l 201 363 l 210 0 l 165 69 l 135 -264 l 35 310 l 85 276 l 32 621 l 101 590 l 43 1078 l 257 1078 l 257 1003 l 390 1058 l 546 851 m 382 579 l 365 986 l 257 942 l 258 593 l 354 543 l 382 579 z "},"Q":{"ha":676,"x_min":46,"x_max":710,"o":"m 401 110 l 258 268 l 356 336 l 378 303 l 454 196 l 450 557 q 382 925 447 746 q 276 875 343 908 q 228 811 239 850 l 225 182 q 271 125 233 158 q 331 82 304 94 q 401 110 374 96 m 603 -15 l 549 7 l 663 -149 l 622 -132 l 710 -287 l 489 -69 l 522 -68 l 429 28 q 331 0 385 8 l 289 7 q 168 110 226 58 q 50 257 63 203 q 46 457 46 353 q 57 836 46 635 q 394 1025 219 960 l 429 1025 l 553 871 q 614 646 606 817 q 625 214 618 560 q 543 104 633 178 l 528 92 l 603 -15 z "},"R":{"ha":532,"x_min":32,"x_max":783,"o":"m 368 579 l 351 986 l 257 942 l 258 593 l 326 543 l 368 579 m 392 488 q 474 181 403 381 q 583 -18 549 -31 q 672 -57 619 -21 q 783 -121 739 -103 q 757 -122 771 -122 q 608 -97 707 -122 q 458 -72 508 -72 q 421 -76 438 -72 q 431 -35 431 -62 q 374 199 431 29 q 296 440 303 410 l 251 510 l 260 271 l 207 351 l 201 363 l 210 0 l 165 69 l 135 -264 l 35 310 l 85 276 l 32 621 l 101 590 l 43 1078 l 257 1078 l 257 1003 l 363 1058 l 532 851 l 501 538 l 392 488 z "},"S":{"ha":626,"x_min":6,"x_max":621,"o":"m 594 236 q 443 113 556 203 q 246 -7 294 -7 q 236 -3 239 -7 l 63 206 q 26 308 26 283 q 60 360 26 339 l 108 390 l 214 415 q 175 381 194 397 q 151 335 154 358 q 226 214 161 300 q 319 129 296 122 q 410 244 343 171 l 399 242 q 408 263 408 249 q 207 526 408 294 q 6 775 6 757 q 14 792 6 786 l 35 817 l 188 939 q 383 1058 338 1058 q 394 1054 390 1058 l 568 846 q 604 743 604 768 q 569 692 604 713 l 432 657 l 431 667 q 467 694 446 682 q 476 718 474 697 q 379 828 465 754 q 261 896 293 903 q 222 859 243 892 q 201 807 201 826 q 214 774 201 790 q 486 464 300 663 q 621 276 621 321 q 608 250 621 261 l 593 247 l 594 236 z "},"T":{"ha":865,"x_min":25,"x_max":867,"o":"m 65 1108 q 400 1094 208 1094 q 815 1115 640 1094 l 867 867 q 806 926 846 901 q 726 950 765 950 l 549 947 l 551 271 l 499 351 l 493 363 l 501 0 l 457 69 l 426 -264 l 326 310 l 376 276 l 324 621 l 393 590 l 350 946 l 165 943 q 25 875 94 951 l 65 1108 z "},"U":{"ha":676,"x_min":0,"x_max":661,"o":"m 661 914 q 636 883 639 889 q 624 807 624 858 q 625 214 622 599 q 543 104 633 178 q 331 0 433 15 l 289 7 q 168 110 226 58 q 50 257 63 203 q 54 906 39 549 q 40 944 56 929 l 1 975 l 0 974 q 68 972 0 971 l 192 974 q 240 971 224 974 q 256 964 257 968 q 226 913 226 947 q 228 889 226 901 l 225 182 q 271 125 233 158 q 331 82 304 94 q 456 154 435 115 q 450 842 454 344 q 433 889 454 857 q 407 931 408 928 q 564 922 440 924 q 661 914 661 921 z "},"V":{"ha":819,"x_min":-61,"x_max":874,"o":"m 625 558 l 467 17 q 435 -2 467 17 q 385 -21 404 -21 q 210 -93 275 -24 l 210 -93 q 213 -90 210 -93 q 310 7 251 -44 l 149 558 q 92 740 103 714 q -25 882 46 847 q -57 899 -32 885 l -61 901 q 210 883 136 878 l 310 525 q 386 257 349 388 l 599 982 q 736 985 653 976 l 874 999 q 710 806 767 922 q 625 558 679 744 z "},"W":{"ha":976,"x_min":3,"x_max":944,"o":"m 594 28 l 463 207 q 461 200 461 192 q 411 132 440 183 q 368 69 382 81 q 261 0 279 0 q 244 7 250 0 l 97 207 q 88 358 89 214 l 83 674 q 86 760 83 703 q 89 846 89 817 q 3 915 89 896 l 135 919 l 301 906 q 243 846 247 892 q 246 638 244 831 l 247 424 q 257 213 250 228 q 301 181 272 181 q 318 182 310 181 q 408 321 350 239 l 401 656 q 422 685 403 678 l 504 779 l 504 771 q 494 754 494 763 q 507 735 494 750 q 519 713 519 719 q 535 257 519 482 q 553 233 535 247 q 572 213 571 218 q 596 157 588 167 q 721 301 615 161 q 722 536 718 347 q 714 767 725 653 q 643 851 707 836 q 733 849 674 851 q 824 847 793 847 q 884 849 844 847 q 944 851 924 851 q 889 824 894 829 q 871 769 871 810 l 875 322 l 646 15 q 635 11 639 11 q 594 28 604 21 z "},"X":{"ha":726,"x_min":-25,"x_max":735,"o":"m 356 332 l 336 304 l 344 347 l 333 364 l 158 101 l 175 179 l -10 -58 l -21 -51 l 254 471 l 263 425 l 276 449 l -25 892 l 93 971 l 264 671 l 285 721 l 356 593 l 425 721 l 446 671 l 617 971 l 735 892 l 433 449 l 447 425 l 456 471 l 731 -51 l 719 -58 l 535 179 l 551 101 l 376 364 l 365 347 l 374 304 l 356 332 m 314 397 l 313 396 l 314 394 l 314 397 z "},"Y":{"ha":692,"x_min":13,"x_max":676,"o":"m 676 1064 q 651 1033 653 1036 q 639 957 639 1011 l 640 558 q 558 449 649 522 q 418 360 521 418 l 450 15 l 397 96 l 392 107 l 400 -158 l 356 -89 l 364 -324 l 267 54 l 317 21 l 250 268 l 319 238 l 283 368 q 183 454 242 403 q 65 601 78 547 q 69 875 61 708 q 57 913 71 897 q 22 940 56 915 q 17 944 13 942 l 22 940 q 100 940 38 938 l 207 944 q 243 944 225 946 q 271 933 272 942 q 242 882 242 917 q 243 858 242 871 l 240 526 q 286 469 249 503 q 346 426 319 439 q 471 499 450 460 l 465 992 q 449 1039 469 1007 q 422 1081 424 1078 q 579 1072 456 1074 q 676 1064 676 1071 z "},"Z":{"ha":717,"x_min":-7,"x_max":688,"o":"m 26 676 l 104 928 l 685 928 l 199 122 l 503 139 q 688 244 601 144 l 601 0 l -7 -8 l 482 800 l 197 794 q 26 676 103 793 z "},"\\":{"ha":626,"x_min":-57,"x_max":683,"o":"m 318 336 l 297 433 l 496 131 l 481 204 l 683 -61 l 417 450 l 408 404 l 244 708 l 224 658 l 49 968 l -57 896 l 318 336 z "},"^":{"ha":388,"x_min":49,"x_max":372,"o":"m 372 854 l 364 932 q 310 992 343 949 q 256 1051 276 1035 q 186 1096 200 1096 q 176 1092 181 1096 l 56 978 q 53 793 49 971 q 61 783 53 783 q 107 811 74 783 q 164 863 167 861 q 165 899 164 897 q 168 894 167 897 q 175 974 172 901 q 228 990 189 1001 q 276 931 232 989 l 278 869 l 276 863 q 269 800 274 856 q 265 807 265 804 q 313 836 265 821 q 372 854 369 854 z "},"a":{"ha":388,"x_min":19,"x_max":382,"o":"m 93 600 l 51 656 q 29 718 29 685 q 36 739 29 731 q 172 829 50 757 q 269 756 218 796 q 336 661 343 697 l 331 344 l 382 342 l 282 229 q 232 204 247 204 q 222 221 218 204 l 222 271 l 133 215 q 19 457 72 204 q 106 532 43 504 l 197 574 q 151 493 150 522 q 149 454 149 474 q 189 307 149 361 q 219 332 211 304 l 219 739 l 199 728 q 161 704 192 724 q 110 647 110 672 l 122 601 l 93 600 z "},"b":{"ha":407,"x_min":0,"x_max":393,"o":"m 0 125 l 146 118 l 146 179 l 251 124 l 393 331 l 363 644 l 226 725 l 147 614 l 144 940 q 175 1015 139 971 l 14 1001 q 42 933 42 968 l 29 174 q 0 125 22 144 m 257 610 q 269 411 269 500 q 240 203 269 275 l 146 247 l 144 560 l 215 646 l 257 610 z "},"c":{"ha":381,"x_min":13,"x_max":374,"o":"m 374 563 l 356 614 l 243 688 q 217 692 236 692 q 188 689 196 692 l 32 567 q 13 363 13 460 q 24 242 13 294 l 164 119 l 235 121 l 360 247 l 299 325 l 293 269 q 292 254 292 256 q 257 201 288 232 l 214 158 q 167 201 178 178 l 153 476 l 172 635 q 183 644 178 644 q 268 560 250 583 q 246 476 272 522 l 374 563 z "},"d":{"ha":432,"x_min":25,"x_max":421,"o":"m 421 194 l 275 188 l 275 249 l 169 193 l 53 278 l 25 699 l 194 794 l 274 683 l 276 968 q 246 1043 282 999 l 407 1043 q 379 975 379 1007 l 392 243 q 421 194 399 214 m 164 679 l 153 456 q 181 272 147 338 l 275 317 l 276 629 l 206 715 l 164 679 z "},"e":{"ha":381,"x_min":13,"x_max":367,"o":"m 367 522 l 332 450 q 208 482 278 482 q 157 471 167 482 l 167 243 q 214 200 178 219 q 251 290 242 236 q 258 361 253 296 l 319 283 l 235 163 l 164 161 l 24 283 q 13 404 13 336 q 32 608 13 501 l 188 731 q 215 729 204 736 l 328 656 l 367 522 m 267 514 l 196 674 q 183 686 186 686 q 172 676 178 686 l 156 518 q 267 514 233 522 z "},"f":{"ha":438,"x_min":-46,"x_max":507,"o":"m 193 522 q 282 577 213 526 q 383 628 351 628 q 403 624 393 628 q 400 617 400 621 q 401 613 400 614 q 407 601 407 603 q 400 593 407 597 q 386 594 393 594 q 294 531 365 594 q 194 460 224 467 q 210 15 200 181 q 375 -54 251 -31 q 279 -65 324 -65 q 94 -29 246 -65 q -11 -17 31 -14 q 75 54 75 19 l 76 461 q -24 557 7 481 q -39 650 -46 614 l -26 713 q 14 700 -4 700 l 78 700 l 78 838 l 33 835 q 132 906 72 865 q 194 956 179 938 l 194 872 q 358 988 250 910 q 414 1018 401 1018 q 424 1014 419 1018 l 489 900 q 507 844 507 860 q 486 815 507 828 l 358 740 l 358 746 q 392 797 388 774 q 368 897 383 832 q 356 928 361 929 q 272 863 346 926 q 192 763 192 792 q 193 522 192 692 m 78 697 l 51 674 q 3 660 33 661 q 78 531 11 565 l 78 697 z "},"g":{"ha":483,"x_min":19,"x_max":411,"o":"m 292 389 q 282 682 289 533 l 172 743 l 156 336 l 197 300 l 292 389 m 411 738 l 410 372 l 401 40 q 169 -154 274 -72 q 114 -185 131 -185 q 104 -181 108 -185 l 39 -67 q 21 -11 21 -26 q 42 18 21 6 l 169 93 l 169 88 q 136 36 140 60 q 160 -64 144 1 q 172 -94 167 -96 q 256 -29 182 -93 q 294 31 289 0 l 294 71 q 292 340 294 67 l 186 214 l 50 294 l 19 608 l 161 815 l 279 753 q 276 818 278 793 q 363 771 301 799 q 411 738 411 749 z "},"h":{"ha":451,"x_min":17,"x_max":435,"o":"m 435 199 l 435 725 l 301 817 q 254 796 264 804 q 178 694 232 776 l 175 1021 q 206 1096 169 1051 l 31 1082 q 58 1014 58 1049 l 46 254 q 17 206 39 225 l 194 201 q 172 268 165 224 l 175 640 q 279 744 267 744 q 290 738 286 744 l 313 679 q 315 414 317 578 q 308 238 314 246 q 208 75 304 149 q 286 96 279 93 q 435 199 361 126 z "},"i":{"ha":244,"x_min":15,"x_max":207,"o":"m 15 101 l 207 101 q 171 176 164 125 q 186 403 182 260 q 185 654 190 549 l 60 654 q 69 408 69 519 q 54 163 69 261 q 15 101 47 119 m 106 897 q 149 885 124 885 q 167 888 154 885 q 185 890 179 890 q 200 764 200 890 q 106 719 160 725 q 51 819 72 756 q 56 863 54 842 q 106 897 65 894 z "},"j":{"ha":249,"x_min":-229,"x_max":239,"o":"m 199 822 q 104 778 158 783 q 50 878 71 814 q 54 921 53 900 q 104 956 64 953 q 147 943 122 943 q 165 946 153 943 q 183 949 178 949 q 199 822 199 949 m 233 675 q 200 624 206 674 l 200 565 l 201 261 l 193 -71 q -81 -265 115 -125 q -136 -296 -124 -296 q -146 -292 -142 -296 l -211 -178 q -229 -122 -229 -137 q -208 -93 -229 -106 l -81 -18 l -81 -24 q -114 -75 -110 -51 q -90 -175 -106 -110 q -78 -206 -83 -207 q 6 -140 -69 -206 q 86 -40 86 -69 q 78 279 86 47 q 72 600 71 465 q 57 656 72 632 q 21 699 51 664 q 110 693 43 693 l 136 693 q 233 675 239 693 z "},"k":{"ha":549,"x_min":-22,"x_max":558,"o":"m 558 742 q 533 728 549 738 l 499 688 l 347 519 l 471 164 q 539 93 488 118 l 369 93 q 376 117 369 100 q 383 142 383 133 q 371 182 381 153 l 282 454 l 154 319 l 154 135 q 232 26 154 82 q 310 -17 271 6 q 140 33 247 -15 q 14 81 33 81 q -22 76 -3 81 l 8 96 q 39 135 39 114 l 50 989 q 37 1010 50 997 q 22 1028 24 1024 l 190 1028 q 164 989 178 1015 l 147 418 l 389 693 q 397 708 397 703 q 324 756 397 722 q 301 764 314 757 l 558 742 z "},"l":{"ha":222,"x_min":43,"x_max":228,"o":"m 164 122 q 161 111 161 117 q 228 29 161 86 l 114 71 q 43 131 47 96 l 49 907 q 125 954 118 944 l 172 1018 l 169 842 l 164 122 z "},"m":{"ha":629,"x_min":-3,"x_max":607,"o":"m 386 704 q 419 748 400 715 q 447 788 438 781 q 517 832 506 832 q 526 828 524 832 l 606 714 q 607 288 607 713 q 593 269 607 274 l 465 194 l 465 200 q 499 251 494 228 q 486 710 497 471 q 454 729 476 729 q 433 726 444 729 q 386 654 418 699 l 388 501 l 386 364 q 385 344 386 360 q 385 314 385 344 l 385 301 q 371 283 385 288 l 243 208 l 243 214 q 276 265 272 242 q 264 724 275 485 q 232 743 254 743 q 211 740 222 743 q 163 653 192 703 q 169 328 158 504 q 213 274 172 283 q 153 275 193 274 q 94 276 114 276 q 56 275 82 276 q 18 274 31 274 q 61 299 54 289 q 67 326 67 304 l 74 678 q 36 711 60 711 q 17 707 31 711 q -3 704 4 703 q 85 756 61 739 q 158 825 132 788 l 158 700 q 225 801 185 746 q 294 846 283 846 q 304 842 301 846 l 383 728 q 386 704 385 726 z "},"n":{"ha":414,"x_min":1,"x_max":389,"o":"m 1 601 q 163 722 72 650 l 163 597 q 229 671 189 629 q 299 715 288 715 q 308 711 306 715 l 388 597 q 389 143 389 596 q 375 125 389 129 l 247 50 l 247 56 q 281 107 276 83 q 268 593 279 340 q 215 610 254 621 q 167 550 211 608 q 174 211 163 392 q 217 157 176 167 q 158 158 197 157 q 99 160 118 160 q 60 158 86 160 q 22 157 35 157 q 65 182 58 172 q 71 210 71 188 l 74 604 l 1 601 z "},"o":{"ha":400,"x_min":17,"x_max":390,"o":"m 383 243 q 307 165 390 208 q 193 124 238 129 l 168 128 q 19 267 28 236 q 32 589 17 332 q 231 694 128 658 l 329 626 l 340 608 q 376 483 371 579 q 383 243 379 435 m 250 210 q 224 639 250 572 l 179 613 q 149 575 156 594 l 156 210 q 193 169 165 182 q 250 210 235 182 z "},"p":{"ha":467,"x_min":18,"x_max":449,"o":"m 18 307 l 88 276 l 29 764 l 201 764 l 201 689 l 307 744 l 449 538 l 418 224 l 282 143 l 203 254 l 204 -1 l 151 79 l 146 90 l 136 -86 l 122 -250 l 18 307 m 313 265 l 296 672 l 201 628 l 203 279 l 271 229 l 313 265 z "},"q":{"ha":467,"x_min":21,"x_max":433,"o":"m 264 707 l 174 747 l 157 340 l 199 304 l 274 350 l 264 707 m 275 322 l 188 218 l 51 299 l 21 613 l 163 819 l 263 774 l 261 797 l 433 785 l 428 710 l 376 -118 l 329 -33 l 325 -22 l 308 -114 l 283 -276 l 219 176 l 281 128 l 275 322 z "},"r":{"ha":322,"x_min":1,"x_max":343,"o":"m 1 796 q 163 917 72 844 l 163 792 q 257 854 235 854 q 267 850 264 854 l 332 736 q 343 711 343 724 q 329 693 343 697 l 201 618 l 201 624 q 235 675 231 651 q 215 726 229 696 q 188 763 197 765 q 167 744 179 761 q 174 336 161 538 q 217 282 176 292 q 158 283 197 282 q 99 285 118 285 q 60 283 86 285 q 22 282 35 282 q 65 307 58 297 q 71 335 71 313 l 74 799 l 1 796 z "},"s":{"ha":364,"x_min":26,"x_max":365,"o":"m 347 224 q 258 156 336 215 q 143 89 171 89 q 138 92 139 89 l 44 206 q 26 261 26 246 q 47 290 26 278 l 75 307 l 136 321 q 125 293 125 310 q 128 269 125 288 q 131 243 132 250 q 168 201 135 226 q 217 179 201 175 q 243 228 217 194 l 236 226 q 242 239 242 231 q 134 381 242 257 q 26 517 26 506 q 32 526 26 524 l 44 540 q 133 608 56 549 q 249 675 221 675 q 254 672 253 675 l 347 558 q 365 503 365 518 q 344 474 365 486 l 244 451 l 244 457 q 256 486 256 468 q 252 513 256 493 q 250 540 249 532 q 224 572 246 557 q 185 586 203 586 q 154 568 169 586 q 139 533 139 550 q 144 517 139 524 q 290 350 188 461 q 363 247 363 272 q 356 232 363 238 l 347 231 l 347 224 z "},"t":{"ha":281,"x_min":-49,"x_max":272,"o":"m 272 713 l 194 713 l 182 122 q 179 111 179 117 q 246 29 179 86 l 132 71 q 61 131 65 96 l 68 718 l -49 718 q 190 949 71 785 l 188 772 l 260 772 l 272 713 z "},"u":{"ha":407,"x_min":28,"x_max":417,"o":"m 150 221 q 203 204 164 193 q 251 264 207 206 q 244 603 256 422 q 201 657 242 647 q 260 656 221 657 q 319 654 300 654 q 358 656 332 654 q 396 657 383 657 q 360 639 364 643 q 347 604 347 629 l 344 210 q 343 193 343 201 q 417 101 343 128 q 256 92 363 100 l 256 217 q 189 143 229 185 q 119 99 131 99 q 110 103 113 99 l 31 217 q 28 638 28 219 q 35 647 28 647 q 82 619 49 647 q 139 568 142 569 q 150 221 139 458 z "},"v":{"ha":388,"x_min":43,"x_max":363,"o":"m 363 647 l 354 306 q 204 186 342 296 q 135 142 149 142 q 125 146 128 142 l 46 260 q 43 708 43 263 q 50 718 43 718 q 97 690 64 718 q 154 639 157 640 q 165 264 156 497 q 218 247 179 236 q 267 307 222 249 q 268 428 268 368 q 260 701 268 565 q 256 694 256 697 q 303 665 256 681 q 363 647 360 647 z "},"w":{"ha":615,"x_min":4,"x_max":636,"o":"m 410 176 q 403 174 406 174 q 401 175 401 174 q 399 176 400 176 q 393 174 396 176 l 382 165 q 389 178 389 176 q 378 185 385 179 l 299 299 q 297 294 297 289 q 264 251 283 283 q 235 211 244 218 q 165 167 176 167 q 156 171 158 167 l 49 299 q 46 396 44 303 q 50 571 47 440 q 53 624 50 588 q 57 681 57 661 q 4 725 57 713 l 88 728 l 211 719 q 172 681 176 710 q 171 528 175 668 l 165 351 q 168 303 165 308 q 206 283 181 276 q 267 372 228 319 l 267 489 q 268 558 267 531 l 269 586 q 283 604 271 600 l 356 665 l 356 660 q 349 649 349 654 q 356 635 349 644 q 364 622 364 626 q 363 331 358 488 q 382 267 363 311 q 464 360 394 269 q 471 510 464 385 q 471 657 475 586 q 428 711 468 701 q 494 710 450 711 q 560 708 538 708 q 598 710 572 708 q 636 711 624 711 q 600 693 604 697 q 588 658 588 683 l 581 390 l 410 176 z "},"x":{"ha":503,"x_min":-100,"x_max":589,"o":"m 463 100 q 365 101 396 103 q 301 100 336 100 q 350 132 325 111 q 340 154 351 135 l 253 307 l 149 126 q 139 104 138 107 q 188 71 140 96 q 124 72 153 71 q 26 71 93 74 q -100 69 -7 69 q 35 133 10 94 q 200 400 114 258 l 88 599 q 39 636 71 628 l 18 657 q -36 689 0 675 q 76 664 -6 688 q 171 642 154 640 q 253 489 197 592 q 354 667 285 546 q 561 674 371 667 l 485 644 q 386 542 433 625 l 306 400 q 454 163 369 294 q 589 99 479 124 q 463 100 496 99 z "},"y":{"ha":467,"x_min":-274,"x_max":449,"o":"m 14 631 l 218 631 q 178 594 179 622 l 194 497 q 218 431 206 432 q 326 643 226 432 q 319 661 325 658 l 285 678 l 449 675 q 275 358 379 546 q 89 71 115 71 q 86 72 88 71 q -112 97 -87 88 q -260 154 -175 106 q -274 171 -274 163 q -257 200 -274 181 q -219 244 -222 240 q -125 247 -161 247 q -76 244 -90 247 q -86 232 -78 235 q -174 207 -103 224 l -199 175 q 51 151 -150 150 l 121 274 q 131 325 131 299 q 50 606 131 392 q 14 631 39 618 z "},"z":{"ha":478,"x_min":28,"x_max":464,"o":"m 100 790 l 38 608 q 158 681 93 685 l 299 711 q 28 282 275 606 l 401 288 l 464 465 q 338 386 406 396 l 188 364 q 329 549 274 453 q 456 818 379 635 l 100 790 z "},"|":{"ha":400,"x_min":115,"x_max":285,"o":"m 285 342 l 246 432 l 242 446 l 247 33 l 214 113 l 192 -265 l 117 385 l 154 347 l 115 739 l 167 704 l 135 1107 l 282 1106 l 285 342 z "},"‘":{"ha":244,"x_min":1,"x_max":221,"o":"m 1 981 l 221 981 q 185 906 178 957 q 188 890 186 890 q 188 903 188 900 q 186 911 186 915 q 186 874 185 907 q 167 772 188 819 q 143 692 144 721 l 74 692 q 60 788 78 740 q 42 868 42 835 q 43 910 42 907 q 44 897 47 901 q 40 919 43 900 q 1 981 33 963 z "},"’":{"ha":244,"x_min":1,"x_max":221,"o":"m 1 981 l 221 981 q 185 906 178 957 q 188 890 186 890 q 188 903 188 900 q 186 911 186 915 q 186 874 185 907 q 167 772 188 819 q 143 692 144 721 l 74 692 q 60 788 78 740 q 42 868 42 835 q 43 910 42 907 q 44 897 47 901 q 40 919 43 900 q 1 981 33 963 z "},"“":{"ha":506,"x_min":1,"x_max":485,"o":"m 1 981 l 221 981 q 185 906 178 957 q 188 890 186 890 q 188 903 188 900 q 186 911 186 915 q 186 874 185 907 q 167 772 188 819 q 143 692 144 721 l 74 692 q 60 788 78 740 q 42 868 42 835 q 43 910 42 907 q 44 897 47 901 q 40 919 43 900 q 1 981 33 963 m 265 981 l 485 981 q 449 906 442 957 q 451 890 450 890 q 451 903 451 900 q 450 911 450 915 q 450 874 449 907 q 431 772 451 819 q 407 692 408 721 l 338 692 q 324 788 342 740 q 306 868 306 835 q 307 910 306 907 q 308 897 311 901 q 304 919 307 900 q 265 981 297 963 z "},"”":{"ha":506,"x_min":1,"x_max":485,"o":"m 1 981 l 221 981 q 185 906 178 957 q 188 890 186 890 q 188 903 188 900 q 186 911 186 915 q 186 874 185 907 q 167 772 188 819 q 143 692 144 721 l 74 692 q 60 788 78 740 q 42 868 42 835 q 43 910 42 907 q 44 897 47 901 q 40 919 43 900 q 1 981 33 963 m 265 981 l 485 981 q 449 906 442 957 q 451 890 450 890 q 451 903 451 900 q 450 911 450 915 q 450 874 449 907 q 431 772 451 819 q 407 692 408 721 l 338 692 q 324 788 342 740 q 306 868 306 835 q 307 910 306 907 q 308 897 311 901 q 304 919 307 900 q 265 981 297 963 z "},"¡":{"ha":342,"x_min":24,"x_max":372,"o":"m 361 794 q 372 769 372 782 q 358 751 372 756 l 231 676 l 231 682 q 264 733 258 710 q 217 821 238 828 q 196 803 208 819 q 203 381 189 600 q 246 326 206 336 q 186 328 229 326 q 128 329 149 329 l 24 326 q 60 344 53 339 q 72 379 72 356 l 75 829 l 31 826 q 192 975 147 922 l 192 850 q 286 913 258 913 q 296 908 293 913 l 361 794 z "},"¢":{"ha":322,"x_min":1,"x_max":343,"o":"m 1 796 q 163 917 72 844 l 163 792 q 257 854 235 854 q 267 850 264 854 l 332 736 q 343 711 343 724 q 329 693 343 697 l 201 618 l 201 624 q 235 675 231 651 q 215 726 229 696 q 188 763 197 765 q 167 744 179 761 q 174 336 161 538 q 217 282 176 292 q 158 283 197 282 q 99 285 118 285 q 60 283 86 285 q 22 282 35 282 q 65 307 58 297 q 71 335 71 313 l 74 799 l 1 796 z "},"£":{"ha":1389,"x_min":0,"x_max":0,"o":""},"¤":{"ha":288,"x_min":-15,"x_max":424,"o":"m 424 99 l 308 -29 q 168 19 199 7 q 78 75 93 50 l 72 636 l -15 639 q 183 886 118 756 l 186 694 l 265 694 l 275 636 l 193 636 l 194 71 q 288 18 221 43 l 342 68 l 236 99 l 424 99 z "},"¥":{"ha":364,"x_min":-26,"x_max":367,"o":"m 18 638 q 179 786 135 733 l 179 703 q 274 765 251 765 q 283 761 281 765 l 349 647 q 367 592 367 607 q 346 563 367 575 l 218 488 l 218 493 q 251 544 247 521 q 204 674 217 678 q 183 656 196 672 q 182 539 182 599 q 194 151 182 358 q 360 82 236 106 q 264 72 308 72 q 79 106 206 72 q -26 119 17 122 q 60 190 60 156 l 63 640 l 18 638 z "},"¦":{"ha":467,"x_min":-274,"x_max":449,"o":"m 14 631 l 218 631 q 178 594 179 622 l 194 497 q 218 431 206 432 q 326 643 226 432 q 319 661 325 658 l 285 678 l 449 675 q 275 358 379 546 q 89 71 115 71 q 86 72 88 71 q -112 97 -87 88 q -260 154 -175 106 q -274 171 -274 163 q -257 200 -274 181 q -219 244 -222 240 q -125 247 -161 247 q -76 244 -90 247 q -86 232 -78 235 q -174 207 -103 224 l -199 175 q 51 151 -150 150 l 121 274 q 131 325 131 299 q 50 606 131 392 q 14 631 39 618 z "},"§":{"ha":2319,"x_min":161,"x_max":2158,"o":"m 1821 522 l 1786 450 q 1663 482 1732 482 q 1611 471 1621 482 l 1621 243 q 1668 200 1632 219 q 1707 290 1697 236 q 1713 361 1708 297 l 1774 283 l 1689 163 l 1618 161 l 1478 283 q 1468 404 1468 336 q 1486 608 1468 501 l 1642 731 q 1669 729 1658 736 l 1782 656 l 1821 522 m 1649 99 l 1533 -29 q 1394 19 1425 7 q 1303 75 1319 50 l 1297 636 l 1211 639 q 1408 886 1344 756 l 1411 694 l 1490 694 l 1500 636 l 1418 636 l 1419 71 q 1513 18 1447 43 l 1567 68 l 1461 99 l 1649 99 m 1267 713 l 1189 713 l 1176 122 q 1174 111 1174 117 q 1240 29 1174 86 l 1128 71 q 1056 131 1063 94 l 1063 718 l 947 718 q 1185 949 1067 785 l 1182 772 l 1254 772 l 1267 713 m 1013 243 q 964 182 1015 221 q 822 124 901 135 l 797 128 l 725 185 q 649 267 654 240 q 661 589 646 332 q 860 694 756 658 l 958 626 l 969 608 q 1006 483 1003 576 l 1013 243 m 647 851 l 617 538 l 467 457 l 388 568 l 389 271 l 336 351 l 331 363 l 339 0 l 294 69 l 264 -264 l 164 310 l 214 276 l 161 621 l 231 590 l 172 1078 l 386 1078 l 386 1003 l 492 1058 l 647 851 m 1721 514 l 1650 674 q 1638 686 1640 686 q 1626 676 1633 686 l 1610 518 q 1721 514 1689 522 m 879 210 q 853 639 879 572 l 808 613 q 778 575 785 594 l 785 210 q 822 169 794 182 q 879 210 863 182 m 483 579 l 467 986 l 386 942 l 388 593 l 456 543 l 483 579 m 1810 638 q 1971 786 1926 733 l 1971 703 q 2065 765 2043 765 q 2075 761 2072 765 l 2140 647 q 2158 592 2158 607 q 2138 563 2158 575 l 2010 488 l 2010 493 q 2043 544 2039 521 q 1996 674 2008 678 q 1975 656 1988 672 q 1974 539 1974 599 q 1986 151 1974 358 q 2151 82 2028 106 q 2056 72 2100 72 q 1871 106 1997 72 q 1765 119 1808 122 q 1851 190 1851 156 l 1854 640 l 1810 638 z "}}}
